<mxfile host="app.diagrams.net" agent="Mozilla/5.0 (X11; Linux x86_64) AppleWebKit/537.36 (KHTML, like Gecko) Chrome/139.0.0.0 Safari/537.36" version="28.2.3">
  <diagram name="Page-1" id="hC7Og0QrGPylyiWZxcLo">
    <mxGraphModel dx="872" dy="482" grid="1" gridSize="10" guides="1" tooltips="1" connect="1" arrows="1" fold="1" page="1" pageScale="1" pageWidth="850" pageHeight="1100" math="0" shadow="0">
      <root>
        <mxCell id="0" />
        <mxCell id="1" parent="0" />
        <mxCell id="D8EnfhVbTAUP3HAAXWpM-1" value="Doe_fácil DB" style="shape=cylinder3;whiteSpace=wrap;html=1;boundedLbl=1;backgroundOutline=1;size=15;" vertex="1" parent="1">
          <mxGeometry x="395" y="380" width="60" height="80" as="geometry" />
        </mxCell>
        <mxCell id="D8EnfhVbTAUP3HAAXWpM-2" value="SRV&lt;span style=&quot;background-color: transparent; color: light-dark(rgb(0, 0, 0), rgb(255, 255, 255));&quot;&gt;-Ongs&lt;/span&gt;" style="ellipse;whiteSpace=wrap;html=1;" vertex="1" parent="1">
          <mxGeometry x="220" y="540" width="120" height="80" as="geometry" />
        </mxCell>
        <mxCell id="D8EnfhVbTAUP3HAAXWpM-3" value="SRV&lt;span style=&quot;background-color: transparent; color: light-dark(rgb(0, 0, 0), rgb(255, 255, 255));&quot;&gt;-Colaboradores&lt;/span&gt;" style="ellipse;whiteSpace=wrap;html=1;" vertex="1" parent="1">
          <mxGeometry x="365" y="540" width="120" height="80" as="geometry" />
        </mxCell>
        <mxCell id="D8EnfhVbTAUP3HAAXWpM-4" value="SRV&lt;span style=&quot;background-color: transparent; color: light-dark(rgb(0, 0, 0), rgb(255, 255, 255));&quot;&gt;-Doações&lt;/span&gt;" style="ellipse;whiteSpace=wrap;html=1;" vertex="1" parent="1">
          <mxGeometry x="510" y="540" width="120" height="80" as="geometry" />
        </mxCell>
        <mxCell id="D8EnfhVbTAUP3HAAXWpM-5" value="" style="endArrow=classic;html=1;rounded=0;" edge="1" parent="1" target="D8EnfhVbTAUP3HAAXWpM-1">
          <mxGeometry width="50" height="50" relative="1" as="geometry">
            <mxPoint x="425" y="540" as="sourcePoint" />
            <mxPoint x="480" y="550" as="targetPoint" />
          </mxGeometry>
        </mxCell>
        <mxCell id="D8EnfhVbTAUP3HAAXWpM-7" style="edgeStyle=orthogonalEdgeStyle;rounded=0;orthogonalLoop=1;jettySize=auto;html=1;exitX=0.5;exitY=0;exitDx=0;exitDy=0;entryX=0;entryY=0;entryDx=0;entryDy=52.5;entryPerimeter=0;" edge="1" parent="1" source="D8EnfhVbTAUP3HAAXWpM-2" target="D8EnfhVbTAUP3HAAXWpM-1">
          <mxGeometry relative="1" as="geometry" />
        </mxCell>
        <mxCell id="D8EnfhVbTAUP3HAAXWpM-10" style="edgeStyle=orthogonalEdgeStyle;rounded=0;orthogonalLoop=1;jettySize=auto;html=1;exitX=0.5;exitY=0;exitDx=0;exitDy=0;entryX=1;entryY=0.5;entryDx=0;entryDy=0;entryPerimeter=0;" edge="1" parent="1" source="D8EnfhVbTAUP3HAAXWpM-4" target="D8EnfhVbTAUP3HAAXWpM-1">
          <mxGeometry relative="1" as="geometry" />
        </mxCell>
        <mxCell id="D8EnfhVbTAUP3HAAXWpM-13" value="B&lt;span style=&quot;background-color: transparent; color: light-dark(rgb(0, 0, 0), rgb(255, 255, 255));&quot;&gt;ACK-END&lt;/span&gt;" style="swimlane;whiteSpace=wrap;html=1;" vertex="1" parent="1">
          <mxGeometry x="180" y="340" width="520" height="310" as="geometry" />
        </mxCell>
        <mxCell id="D8EnfhVbTAUP3HAAXWpM-15" style="edgeStyle=orthogonalEdgeStyle;rounded=0;orthogonalLoop=1;jettySize=auto;html=1;exitX=0.5;exitY=0;exitDx=0;exitDy=0;" edge="1" parent="1" source="D8EnfhVbTAUP3HAAXWpM-14" target="D8EnfhVbTAUP3HAAXWpM-3">
          <mxGeometry relative="1" as="geometry" />
        </mxCell>
        <mxCell id="D8EnfhVbTAUP3HAAXWpM-16" style="edgeStyle=orthogonalEdgeStyle;rounded=0;orthogonalLoop=1;jettySize=auto;html=1;exitX=0;exitY=0;exitDx=0;exitDy=0;entryX=0.5;entryY=1;entryDx=0;entryDy=0;" edge="1" parent="1" source="D8EnfhVbTAUP3HAAXWpM-14" target="D8EnfhVbTAUP3HAAXWpM-2">
          <mxGeometry relative="1" as="geometry" />
        </mxCell>
        <mxCell id="D8EnfhVbTAUP3HAAXWpM-17" style="edgeStyle=orthogonalEdgeStyle;rounded=0;orthogonalLoop=1;jettySize=auto;html=1;exitX=1;exitY=0;exitDx=0;exitDy=0;" edge="1" parent="1" source="D8EnfhVbTAUP3HAAXWpM-14" target="D8EnfhVbTAUP3HAAXWpM-4">
          <mxGeometry relative="1" as="geometry" />
        </mxCell>
        <mxCell id="D8EnfhVbTAUP3HAAXWpM-14" value="SPA-DoeFacil" style="ellipse;whiteSpace=wrap;html=1;" vertex="1" parent="1">
          <mxGeometry x="365" y="810" width="120" height="80" as="geometry" />
        </mxCell>
      </root>
    </mxGraphModel>
  </diagram>
</mxfile>
